{
    "asset" : {
        "generator" : "Khronos glTF Blender I/O v1.3.48",
        "version" : "2.0"
    },
    "scene" : 0,
    "scenes" : [
        {
            "name" : "Scene",
            "nodes" : [
                0,
                1,
                2
            ]
        }
    ],
    "nodes" : [
        {
            "name" : "Light",
            "rotation" : [
                0.16907575726509094,
                0.7558803558349609,
                -0.27217137813568115,
                0.570947527885437
            ],
            "translation" : [
                4.076245307922363,
                5.903861999511719,
                -1.0054539442062378
            ]
        },
        {
            "name" : "Camera",
            "rotation" : [
                0.483536034822464,
                0.33687159419059753,
                -0.20870360732078552,
                0.7804827094078064
            ],
            "translation" : [
                7.358891487121582,
                4.958309173583984,
                6.925790786743164
            ]
        },
        {
            "mesh" : 0,
            "name" : "FL-P-004 Omarica 60 - sestav"
        }
    ],
    "materials" : [
        {
            "doubleSided" : true,
            "emissiveFactor" : [
                0,
                0,
                0
            ],
            "name" : "Material.001",
            "pbrMetallicRoughness" : {
                "baseColorFactor" : [
                    0.8000000715255737,
                    0.22061289846897125,
                    0.2391754388809204,
                    1
                ],
                "metallicFactor" : 0,
                "roughnessFactor" : 0.5
            }
        }
    ],
    "meshes" : [
        {
            "extras" : {
                "targetNames" : [
                    "test-sirina"
                ]
            },
            "name" : "FL-P-004 Omarica 60 - sestav",
            "primitives" : [
                {
                    "attributes" : {
                        "POSITION" : 0,
                        "NORMAL" : 1
                    },
                    "indices" : 2,
                    "material" : 0,
                    "targets" : [
                        {
                            "POSITION" : 3,
                            "NORMAL" : 4
                        }
                    ]
                }
            ],
            "weights" : [
                0
            ]
        }
    ],
    "accessors" : [
        {
            "bufferView" : 0,
            "componentType" : 5126,
            "count" : 169201,
            "max" : [
                0.30000001192092896,
                1.1528053283691406,
                0.3400000035762787
            ],
            "min" : [
                -0.320000022649765,
                -0.09850000590085983,
                -0.3934389054775238
            ],
            "type" : "VEC3"
        },
        {
            "bufferView" : 1,
            "componentType" : 5126,
            "count" : 169201,
            "type" : "VEC3"
        },
        {
            "bufferView" : 2,
            "componentType" : 5125,
            "count" : 218568,
            "type" : "SCALAR"
        },
        {
            "bufferView" : 3,
            "componentType" : 5126,
            "count" : 169201,
            "max" : [
                0,
                0,
                0
            ],
            "min" : [
                -0.4303690493106842,
                0,
                0
            ],
            "type" : "VEC3"
        },
        {
            "bufferView" : 4,
            "componentType" : 5126,
            "count" : 169201,
            "type" : "VEC3"
        }
    ],
    "bufferViews" : [
        {
            "buffer" : 0,
            "byteLength" : 2030412,
            "byteOffset" : 0
        },
        {
            "buffer" : 0,
            "byteLength" : 2030412,
            "byteOffset" : 2030412
        },
        {
            "buffer" : 0,
            "byteLength" : 874272,
            "byteOffset" : 4060824
        },
        {
            "buffer" : 0,
            "byteLength" : 2030412,
            "byteOffset" : 4935096
        },
        {
            "buffer" : 0,
            "byteLength" : 2030412,
            "byteOffset" : 6965508
        }
    ],
    "buffers" : [
        {
            "byteLength" : 8995920,
            "uri" : "test-omarice2.bin"
        }
    ]
}

